<?xml version="1.0" encoding="UTF-8" standalone="no"?><!DOCTYPE svg PUBLIC "-//W3C//DTD SVG 1.1//EN" "http://www.w3.org/Graphics/SVG/1.1/DTD/svg11.dtd"><svg width="100%" height="100%" viewBox="0 0 32 32" version="1.1" xmlns="http://www.w3.org/2000/svg" xmlns:xlink="http://www.w3.org/1999/xlink" xml:space="preserve" xmlns:serif="http://www.serif.com/" style="fill-rule:evenodd;clip-rule:evenodd;stroke-linejoin:round;stroke-miterlimit:2;"><path d="M13.526,22.637c0.569,0.213 0.974,0.762 0.974,1.405l0,3c0,0.828 -0.672,1.5 -1.5,1.5l-9,0c-0.828,0 -1.5,-0.672 -1.5,-1.5l-0,-3c-0,-0.653 0.417,-1.208 0.999,-1.414l-0.001,-0.228c-0.005,-1.651 0.479,-3.266 1.392,-4.64l6.067,-9.14c-0.098,-0.948 0.091,-1.933 0.603,-2.82c1.292,-2.239 4.159,-3.007 6.398,-1.714c1.504,0.868 2.344,2.448 2.342,4.07l6.637,7.265c0.234,0.255 0.369,0.585 0.382,0.931l0.164,4.208c0.587,0.141 1.048,0.625 1.143,1.245l0.341,2.224c0.061,0.401 -0.023,0.81 -0.237,1.155l-1.305,2.099c-0.108,0.173 -0.311,0.263 -0.512,0.228c-0.201,-0.036 -0.36,-0.19 -0.402,-0.39l-0.399,-1.897l-0.611,-0.852l-0.622,0.853l-0.389,1.894c-0.041,0.199 -0.198,0.354 -0.398,0.391c-0.2,0.037 -0.402,-0.05 -0.512,-0.221l-1.342,-2.085c-0.23,-0.356 -0.318,-0.785 -0.247,-1.202l0.373,-2.22c0.095,-0.559 0.488,-1.004 1.001,-1.181l-0.365,-1.31l-6.111,-5.583l-2.97,5.976c-0.153,0.308 -0.243,0.644 -0.266,0.988l-0.127,1.965Zm-2.238,-12.707l-5.565,8.383c-0.803,1.21 -1.229,2.631 -1.225,4.083l0,0.123l1.533,-0c0.032,-0.795 0.187,-2.364 0.884,-3.415l5.206,-7.843c-0.354,-0.397 -0.634,-0.849 -0.833,-1.331Zm8.829,-0.491c-0.103,0.357 -0.251,0.708 -0.445,1.044c-0.512,0.887 -1.271,1.544 -2.141,1.932l-0.179,0.361l6.428,5.873c0.069,0.064 0.119,0.145 0.144,0.235c0,0 0.456,1.635 0.456,1.635l2.1,-0l-0.16,-4.128c-0.004,-0.11 -0.047,-0.215 -0.121,-0.296l-6.082,-6.656Zm-3.062,2.093c0.712,-0.301 1.335,-0.828 1.751,-1.549c1.017,-1.76 0.412,-4.015 -1.348,-5.031c-1.761,-1.017 -4.016,-0.413 -5.032,1.348c-1.017,1.761 -0.413,4.015 1.348,5.032c0.994,0.574 2.146,0.631 3.143,0.255c0.043,-0.025 0.09,-0.044 0.138,-0.055Zm-0.824,1.252c-0.517,0.069 -1.048,0.052 -1.57,-0.056l-2.918,5.874c-0.295,0.593 -0.47,1.238 -0.514,1.898l-0.006,2.019l1.308,-0l0.124,-1.912c0.031,-0.476 0.157,-0.941 0.369,-1.368l3.207,-6.455Zm-2.531,-0.368c-0.144,-0.065 -0.286,-0.138 -0.426,-0.218c-0.14,-0.081 -0.273,-0.168 -0.402,-0.26l-5.123,7.719c-0.576,0.867 -0.7,2.152 -0.724,2.843l3.198,-0l0.006,-2.019c-0,-0.01 -0,-0.021 0.001,-0.031c0.051,-0.798 0.261,-1.577 0.617,-2.293l2.853,-5.741Zm13.428,9.103l-3.269,-0c-0.252,-0 -0.467,0.181 -0.509,0.429l-0.373,2.22c-0.029,0.172 0.007,0.348 0.101,0.495l0.679,1.054l0.164,-0.799c0.015,-0.07 0.044,-0.136 0.086,-0.194l1.093,-1.5c0.095,-0.13 0.246,-0.206 0.406,-0.205c0.161,0 0.311,0.078 0.405,0.208l1.075,1.5c0.04,0.057 0.068,0.121 0.083,0.189l0.164,0.781l0.648,-1.041c0.088,-0.142 0.123,-0.311 0.097,-0.476l-0.34,-2.224c-0.039,-0.252 -0.255,-0.437 -0.51,-0.437Zm-13.628,2.523c0,-0.276 -0.224,-0.5 -0.5,-0.5l-9,0c-0.276,0 -0.5,0.224 -0.5,0.5l-0,3c-0,0.276 0.224,0.5 0.5,0.5l9,0c0.276,0 0.5,-0.224 0.5,-0.5l0,-3Zm3.224,-17.82c1.06,0.612 1.423,1.968 0.812,3.028c-0.612,1.06 -1.969,1.423 -3.028,0.811c-1.06,-0.611 -1.424,-1.968 -0.812,-3.028c0.612,-1.059 1.969,-1.423 3.028,-0.811Zm-0.5,0.866c-0.581,-0.336 -1.326,-0.136 -1.662,0.445c-0.336,0.582 -0.136,1.327 0.446,1.662c0.581,0.336 1.326,0.137 1.662,-0.445c0.335,-0.582 0.136,-1.326 -0.446,-1.662Z"/></svg>